<?xml version="1.0" standalone="no"?><!DOCTYPE svg PUBLIC "-//W3C//DTD SVG 1.1//EN" "http://www.w3.org/Graphics/SVG/1.1/DTD/svg11.dtd"><svg t="1533204979299" class="icon" style="" viewBox="0 0 1024 1024" version="1.1" xmlns="http://www.w3.org/2000/svg" p-id="35499" xmlns:xlink="http://www.w3.org/1999/xlink" width="128" height="128"><defs><style type="text/css"></style></defs><path d="M907.748323 111.805412 144.405901 111.805412c-36.734646 0-66.514903 29.780257-66.514903 66.514903l0 585.331145c0 36.734646 29.780257 66.514903 66.514903 66.514903l763.341399 0c36.735669 0 66.514903-29.780257 66.514903-66.514903l0-585.331145C974.263226 141.584646 944.482969 111.805412 907.748323 111.805412zM887.61989 222.543515 545.18889 564.974515c-5.754051 5.754051-13.352099 8.53028-20.890796 8.347109-7.53972 0.184195-15.137769-2.593058-20.890796-8.347109L160.975275 222.543515c-11.150968-11.150968-11.150968-29.231765 0-40.382733s29.231765-11.150968 40.382733 0l322.940087 322.940087L847.237157 182.160783c11.150968-11.150968 29.231765-11.150968 40.382733 0S898.770857 211.392548 887.61989 222.543515z" p-id="35500" fill="#ffffff"></path></svg>