<?xml version="1.0" standalone="no"?><!DOCTYPE svg PUBLIC "-//W3C//DTD SVG 1.1//EN" "http://www.w3.org/Graphics/SVG/1.1/DTD/svg11.dtd"><svg t="1533176769577" class="icon" style="" viewBox="0 0 1024 1024" version="1.1" xmlns="http://www.w3.org/2000/svg" p-id="2331" xmlns:xlink="http://www.w3.org/1999/xlink" width="200" height="200"><defs><style type="text/css"></style></defs><path d="M945.664 860.16l-187.392-179.2c108.032-151.552 91.136-364.544-46.08-496.128C562.688 41.984 328.704 49.664 188.928 201.728 49.152 353.28 56.32 591.872 205.312 734.208c137.728 131.584 347.648 135.168 488.96 15.36l187.392 179.2c18.432 17.92 48.128 16.896 65.536-2.048 17.92-18.944 16.896-49.152-1.536-66.56zM248.32 687.616c-123.904-118.272-130.048-316.416-13.824-442.88 116.224-125.952 310.784-132.608 434.688-14.336 123.904 118.272 130.048 316.416 13.824 442.88-116.224 126.464-310.784 132.608-434.688 14.336z" fill="#ffffff" p-id="2332"></path></svg>