<?xml version="1.0" standalone="no"?><!DOCTYPE svg PUBLIC "-//W3C//DTD SVG 1.1//EN" "http://www.w3.org/Graphics/SVG/1.1/DTD/svg11.dtd"><svg t="1533187127554" class="icon" style="" viewBox="0 0 1024 1024" version="1.1" xmlns="http://www.w3.org/2000/svg" p-id="11911" xmlns:xlink="http://www.w3.org/1999/xlink" width="48" height="48"><defs><style type="text/css"></style></defs><path d="M79.507166 947.674988a26.671392 26.671392 0 0 1-24.850159-36.351279l51.881795-133.176839c-31.721478-34.930317-56.858498-73.523115-74.837337-114.917809-20.994215-48.339396-31.641424-99.220514-31.641424-151.229061 0-59.40689 13.782665-116.999218 40.974409-171.169229 26.077657-51.955178 63.309532-98.526711 110.668265-138.433731C248.174702 121.101996 376.16803 76.331683 512.086725 76.331683s263.912024 44.770313 360.38401 126.065357c47.358732 39.90702 84.590608 86.485224 110.668265 138.433731 27.185073 54.170011 40.97441 111.762339 40.97441 171.169229 0 59.400219-13.782665 116.992547-40.97441 171.169229-26.077657 51.948507-63.309532 98.533382-110.668265 138.433731-96.471986 81.301715-224.458644 126.065357-360.38401 126.065357-84.090269 0-167.446709-17.892114-241.74368-51.815083l-183.724397 50.847761a26.297806 26.297806 0 0 1-7.111482 0.973993z m193.21082-106.805649c3.962683 0 7.905353 0.880596 11.527805 2.621775 69.427008 33.262521 148.213686 50.854433 227.840934 50.854432 252.924584 0 458.690572-171.522802 458.690572-382.345546S765.01131 129.661125 512.086725 129.661125c-252.917913 0-458.690572 171.516131-458.690571 382.338875 0 44.650232 9.159535 88.386512 27.2251 129.981342 17.578569 40.454057 43.129202 77.966123 75.944754 111.482149a26.671392 26.671392 0 0 1 5.790588 28.339188l-38.692865 99.307239 141.942773-39.279929c2.334914-0.640434 4.723198-0.96065 7.111482-0.96065z" fill="#707070" p-id="11912"></path></svg>