<?xml version="1.0" standalone="no"?><!DOCTYPE svg PUBLIC "-//W3C//DTD SVG 1.1//EN" "http://www.w3.org/Graphics/SVG/1.1/DTD/svg11.dtd"><svg t="1533210051085" class="icon" style="" viewBox="0 0 1024 1024" version="1.1" xmlns="http://www.w3.org/2000/svg" p-id="37311" xmlns:xlink="http://www.w3.org/1999/xlink" width="128" height="128"><defs><style type="text/css"></style></defs><path d="M511.620353 696.594205c103.411231-0.216941 187.18931-83.995019 187.406251-187.40625v-256.450767c0-103.501282-83.904968-187.406251-187.406251-187.40625s-187.406251 83.904968-187.40625 187.40625v256.450767c0.217964 103.411231 83.995019 187.18931 187.40625 187.40625z" p-id="37312" fill="#8a8a8a"></path><path d="M787.774881 479.620545c-16.32378 0.013303-29.554106 13.242606-29.56741 29.56741 0 136.186705-110.400413 246.587118-246.587118 246.587118S265.033235 645.37466 265.033235 509.187955c-0.005117-16.3422-13.256932-29.585829-29.600155-29.580713-16.335037 0.005117-29.575596 13.245675-29.580712 29.580713 0.25685 157.284209 119.649054 288.786219 276.17704 304.190047v90.349751H353.805048c-16.3422 0-29.590945 13.247722-29.590945 29.590945 0 16.3422 13.247722 29.590945 29.590945 29.590945h315.631634c16.3422-0.01228 29.579689-13.271258 29.567409-29.613458-0.013303-16.324804-13.242606-29.554106-29.567409-29.567409H541.211299V813.378002c156.527986-15.403828 275.92019-146.905838 276.17704-304.190047-0.01228-16.3422-13.271258-29.579689-29.613458-29.56741z" p-id="37313" fill="#8a8a8a"></path></svg>