<?xml version="1.0" standalone="no"?><!DOCTYPE svg PUBLIC "-//W3C//DTD SVG 1.1//EN" "http://www.w3.org/Graphics/SVG/1.1/DTD/svg11.dtd"><svg t="1533188629861" class="icon" style="" viewBox="0 0 1024 1024" version="1.1" xmlns="http://www.w3.org/2000/svg" p-id="24710" xmlns:xlink="http://www.w3.org/1999/xlink" width="128" height="128"><defs><style type="text/css"></style></defs><path d="M271.52 383.232c0 82.24 32.032 164.16 82.08 211.904l7.872 7.52-0.48 10.88c-0.288 6.624-0.704 13.152-1.28 19.84l-0.288 3.68-1.376 3.392c-12.608 30.848-38.016 46.944-111.488 76.128-113.824 45.152-146.56 74.336-158.4 143.168-1.088 6.304 4.064 12.256 11.136 12.256h697.408c7.072 0 12.224-5.952 11.136-12.256-11.456-66.848-45.856-98.432-150.272-140.192l-3.776-1.504-3.744-1.504c-73.216-29.152-98.496-45.28-111.072-76.096l-1.408-3.392-0.32-3.648a474.24 474.24 0 0 1-1.28-20.864l-0.448-10.752 7.744-7.488c49.568-47.872 81.216-129.376 81.216-211.072 0-120.896-71.36-199.232-176.48-199.232-105.152 0-176.48 78.336-176.48 199.232z m-48 0C223.52 236.8 315.296 136 448 136s224.48 100.8 224.48 247.232c0 89.984-33.312 179.84-88 237.664l0.288 4.256c7.04 12.864 26.24 24.16 83.072 46.816l3.744 1.472 3.808 1.536c118.304 47.36 164.928 90.144 179.776 176.64 6.144 35.904-21.888 68.384-58.464 68.384H99.296c-36.576 0-64.64-32.512-58.432-68.416C56.16 762.72 101.12 722.656 228.8 672c57.024-22.656 76.384-33.984 83.392-46.816l0.256-3.264c-55.232-57.76-88.96-148.128-88.96-238.656zM743.68 407.04h202.432c8.832 0 16-10.752 16-24s-7.168-24-16-24H743.68c-8.832 0-16 10.752-16 24s7.168 24 16 24z" p-id="24711" fill="#707070"></path><path d="M743.68 540.16h202.432c8.832 0 16-10.752 16-24s-7.168-24-16-24H743.68c-8.832 0-16 10.752-16 24s7.168 24 16 24zM810.24 673.28h135.872c8.832 0 16-10.752 16-24s-7.168-24-16-24H810.24c-8.832 0-16 10.752-16 24s7.168 24 16 24z" p-id="24712" fill="#707070"></path></svg>